<svg width="225" height="32" viewBox="0 0 225 32" fill="none" xmlns="http://www.w3.org/2000/svg">
<path d="M32.7906 22.6142C41.1808 26.4692 47.1523 24.4283 47.1523 18.7592C47.1523 13.0145 36.9983 14.1736 37.0487 11.6288C37.0991 9.58788 41.1052 9.33592 44.6579 12.0067L46.598 8.58004C40.5761 4.3975 32.9921 5.98485 32.7906 11.3516C32.5386 17.8774 42.8942 16.9955 42.869 19.0112C42.869 21.4552 37.9809 20.7497 34.4283 18.4317L32.7906 22.6142ZM56.0065 24.2772C60.1387 24.2772 63.137 21.0773 63.137 17.0459V6.61475H59.03V17.0459C59.03 18.6836 57.8962 20.0694 56.0065 20.0694C54.0916 20.0694 52.983 18.6836 52.983 17.0459V6.61475H48.8509V17.0459C48.8509 21.0773 51.8744 24.2772 56.0065 24.2772ZM65.7101 24H69.9935V19.2883H73.8484C78.2326 19.2883 80.3994 16.3152 80.3994 12.9641C80.3994 9.81464 78.2326 6.61475 73.8484 6.61475H65.7101V24ZM69.9935 15.6097V10.2934H73.5965C75.0327 10.2934 76.2421 11.402 76.2421 12.9641C76.2421 14.4255 75.0327 15.6097 73.5965 15.6097H69.9935ZM81.9753 24H94.5734V20.397H86.2083V16.9451H93.3387V13.2917H86.2083V10.2178H94.5734V6.61475H81.9753V24ZM96.4936 24H100.726V19.2883L103.019 19.2631L106.32 24H111.233L107.479 18.6332C109.747 17.6254 110.931 15.383 110.931 12.9641C110.931 9.81464 108.764 6.61475 104.38 6.61475H96.4936V24ZM100.726 10.2934H104.103C105.564 10.2934 106.774 11.402 106.774 12.9641C106.774 14.4255 105.564 15.6097 104.103 15.6097H100.726V10.2934ZM138.197 24.4283C140.918 24.4283 143.185 23.3449 144.798 21.556L141.926 18.6836C141.094 19.7167 139.784 20.3718 138.197 20.3718C135.4 20.3718 133.183 18.0537 133.183 15.3074C133.183 12.687 135.274 10.2682 138.197 10.2682C139.91 10.2682 141.119 11.0744 141.926 11.9815L144.798 9.10915C143.185 7.39582 141.018 6.23681 138.197 6.23681C133.031 6.23681 129.151 10.3942 129.151 15.3074C129.151 20.1954 133.031 24.4283 138.197 24.4283ZM153.971 24.4283C158.985 24.4283 163.067 20.3466 163.067 15.3074C163.067 10.2934 158.985 6.21161 153.971 6.21161C148.907 6.21161 144.85 10.2934 144.85 15.3074C144.85 20.3466 148.907 24.4283 153.971 24.4283ZM153.946 20.1954C151.275 20.1954 149.058 18.0033 149.058 15.3074C149.058 12.6366 151.275 10.4193 153.946 10.4193C156.617 10.4445 158.809 12.6366 158.834 15.3074C158.834 18.0033 156.642 20.1954 153.946 20.1954ZM164.829 24H171.682C176.343 24 180.072 20.4222 180.072 15.3074C180.072 9.36111 176.343 6.61475 171.682 6.61475H164.829V24ZM169.062 19.9686V10.6461H171.254C173.622 10.6461 175.789 12.0823 175.789 15.3074C175.789 18.3561 173.622 19.9686 171.254 19.9686H169.062ZM181.832 24H186.065V6.61475H181.832V24ZM204.998 25.033V6.61475H200.765V16.1892L188.671 6.61475V24H192.904V15.4586L204.998 25.033ZM215.709 24.6047C218.204 24.6047 221.731 23.6725 223.444 21.178V14.1484H219.413V18.8852C218.506 19.9938 217.02 20.5481 215.709 20.5481C213.039 20.5481 210.695 18.3813 210.695 15.5341C210.695 12.687 213.039 10.5201 215.709 10.5201C217.145 10.5201 218.405 11.0996 219.287 12.0067L222.159 9.15955C220.522 7.47141 218.254 6.46357 215.709 6.46357C210.872 6.46357 206.639 10.3438 206.639 15.5341C206.639 20.5733 210.721 24.6047 215.709 24.6047Z" fill="black"/>
<rect width="5.67645" height="19.2078" transform="matrix(0.707505 0.706709 -0.707505 0.706709 124.577 7.10626)" fill="#0094FF"/>
<rect width="5.67645" height="12.4197" transform="matrix(0.707505 0.706709 -0.707505 0.706709 8.7959 7.10593)" fill="black"/>
<rect width="5.67645" height="12.434" transform="matrix(-0.707505 0.706709 -0.707504 -0.706709 12.8135 20.6804)" fill="black"/>
<rect width="5.67645" height="12.3893" transform="matrix(0.707505 0.706709 -0.707505 0.706709 23.1436 11.8732)" fill="black"/>
<rect width="5.67645" height="12.4114" transform="matrix(-0.707505 0.706709 -0.707505 -0.706709 27.1753 15.8772)" fill="black"/>
<rect width="5.67645" height="19.2078" transform="matrix(0.707505 0.706709 -0.707505 0.706709 18.3818 7.10605)" fill="#0094FF"/>
</svg>
